<svg version="1.1" id="Layer_1" xmlns="http://www.w3.org/2000/svg" xmlns:xlink="http://www.w3.org/1999/xlink" x="0px" y="0px"
	 width="100%" viewBox="0 0 1024 1024" enable-background="new 0 0 1024 1024" xml:space="preserve">
<path fill="#000000" opacity="1.000000" stroke="none" 
	d="
M460.500183,457.494629 
	C453.323303,464.285797 453.289551,464.315277 447.019165,457.134521 
	C436.177917,444.719299 424.119568,434.064941 408.718201,427.332764 
	C376.849854,413.402588 338.166595,422.530914 316.463196,449.722260 
	C302.468903,467.255096 295.206268,487.581146 292.284973,509.606415 
	C289.353271,531.710327 291.577148,553.082642 301.305756,573.433960 
	C323.455383,619.768860 380.957397,637.821228 425.397095,612.318115 
	C426.695648,611.572937 427.969604,610.773254 429.193726,609.911804 
	C444.794312,598.933228 444.790161,598.929138 444.750824,579.886597 
	C444.743591,576.387085 444.743500,572.887634 444.754059,569.388123 
	C444.775391,562.308655 444.779327,562.286560 437.436798,562.281799 
	C417.272888,562.268860 397.108978,562.282288 376.945068,562.272400 
	C369.722107,562.268860 369.710236,562.252075 369.715790,555.103882 
	C369.728577,538.606262 369.881805,522.107117 369.690338,505.611908 
	C369.638245,501.122467 370.931549,499.493011 375.611176,499.540833 
	C394.758911,499.736542 413.917145,499.885742 433.057922,499.452332 
	C447.205688,499.132019 461.340759,500.091156 475.496063,499.159363 
	C492.482758,498.041168 505.112396,489.850708 514.255554,476.052277 
	C521.741882,464.754333 525.658813,451.649536 531.708923,439.598053 
	C554.222839,394.751587 587.964905,362.379486 636.604553,348.033997 
	C675.269653,336.630310 713.547913,339.032043 750.550354,356.352448 
	C776.947815,368.708801 798.765686,386.413269 815.790161,410.014526 
	C818.899292,414.324829 821.329407,419.122467 824.400452,423.463501 
	C827.062134,427.226044 826.127930,429.557343 822.597107,432.081665 
	C807.691040,442.738647 792.921265,453.586212 778.104736,464.368256 
	C774.469055,467.013977 770.747559,469.554169 767.243713,472.365021 
	C763.964966,474.995270 761.782349,474.172424 759.488892,470.979431 
	C754.235168,463.665131 748.368835,456.865601 741.969971,450.493988 
	C711.674438,420.327545 669.696899,418.153931 635.308960,440.051575 
	C618.808289,450.558899 606.714905,464.963409 597.656067,481.941040 
	C578.127319,518.540833 561.175232,556.425964 542.554993,593.482422 
	C537.022766,604.492310 531.578003,615.547485 525.904419,626.484009 
	C524.450623,629.286560 524.382507,631.618835 525.740967,634.456726 
	C529.119629,641.514893 532.090271,648.768738 535.483032,655.819763 
	C536.878113,658.718933 537.020264,660.990295 534.769287,663.517761 
	C527.240417,671.971375 520.098633,680.764038 512.119507,688.825073 
	C509.917175,691.050049 508.172913,691.111023 505.636292,689.520752 
	C499.995514,685.984680 494.130707,682.805542 488.496674,679.259399 
	C486.511230,678.009766 485.079987,677.841309 483.138977,679.276917 
	C476.713989,684.028809 470.189850,688.647705 463.664703,693.262451 
	C461.700195,694.651733 461.105865,696.535889 460.868652,698.814331 
	C460.089355,706.299561 460.403809,713.801208 460.439301,721.293152 
	C460.453735,724.346619 459.514282,726.073547 456.547394,727.338135 
	C447.337067,731.263733 437.837799,734.337585 428.399658,737.613892 
	C424.750763,738.880676 422.447205,737.974426 420.497101,734.720459 
	C417.244476,729.293030 413.666565,724.061584 410.352966,718.669373 
	C408.689178,715.961853 406.632599,714.759460 403.336487,715.161072 
	C396.398926,716.006531 389.431396,716.637695 382.462280,717.177063 
	C379.805023,717.382751 378.787720,719.095581 377.819489,721.094543 
	C375.060822,726.790161 372.260040,732.465637 369.534424,738.176941 
	C368.271545,740.823242 366.562439,742.504028 363.339386,742.063782 
	C353.451935,740.713013 343.533997,739.601440 333.752136,737.521973 
	C329.875214,736.697815 327.673065,735.160461 327.427917,730.701172 
	C327.081879,724.406433 325.826691,718.166687 325.155121,711.882568 
	C324.857391,709.096863 323.710876,707.385071 321.094757,706.220581 
	C314.707977,703.377441 308.394257,700.360535 302.135681,697.243713 
	C299.373077,695.867920 297.145721,696.182739 294.797760,698.100769 
	C289.508484,702.421448 284.041962,706.526367 278.786987,710.887085 
	C276.675903,712.638855 275.026215,713.073975 272.710297,711.179077 
	C264.459534,704.428223 256.130951,697.769531 247.727646,691.209412 
	C244.404160,688.614868 243.362045,685.872986 244.950409,681.715393 
	C247.264435,675.658447 248.909332,669.349121 251.035538,663.215393 
	C251.906189,660.703674 251.453583,658.800476 249.852539,656.771179 
	C244.591492,650.103027 239.344437,643.417419 234.330917,636.563721 
	C232.370880,633.884277 230.309143,633.227966 227.089951,633.753540 
	C220.365067,634.851562 213.559586,635.450500 206.793472,636.304077 
	C203.906128,636.668335 202.071198,635.500610 200.872742,632.879700 
	C195.891174,621.985168 190.334091,611.352478 186.352188,600.005981 
	C185.361557,597.183105 186.114975,595.297668 188.008911,593.300842 
	C192.937134,588.105042 197.700378,582.752991 202.619827,577.548645 
	C204.770798,575.273071 205.270935,572.964355 204.487732,569.843750 
	C202.626862,562.429260 201.081818,554.929077 199.637283,547.419617 
	C199.012787,544.173157 197.502960,542.060364 194.454788,540.706543 
	C187.758499,537.732483 181.228912,534.375549 174.486801,531.515442 
	C171.118591,530.086609 169.598541,528.184509 169.656662,524.410522 
	C169.836136,512.757996 169.849350,501.123871 171.504608,489.533203 
	C172.000610,486.060089 173.718079,484.703064 176.652344,483.761749 
	C182.834732,481.778412 188.943146,479.564178 195.127960,477.588867 
	C198.439209,476.531311 200.406631,474.602966 201.268845,471.119629 
	C203.106903,463.693878 205.185333,456.324677 207.313232,448.975128 
	C208.101379,446.252991 207.390686,444.150970 205.680054,442.072479 
	C201.233704,436.669952 197.029877,431.059235 192.419556,425.803253 
	C189.270294,422.212952 188.675842,418.986755 190.984650,414.574158 
	C196.393784,404.236176 201.800949,393.926575 208.260727,384.182953 
	C209.990051,381.574524 211.624664,380.645355 214.802612,381.482666 
	C222.360367,383.474060 230.052505,384.951263 237.630417,386.872589 
	C240.449661,387.587402 242.246109,386.961914 244.093063,384.720795 
	C248.859161,378.937531 253.755112,373.245239 259.562683,368.437225 
	C262.956085,365.627838 264.079529,362.465454 262.743042,357.898499 
	C260.691711,350.888977 259.477875,343.635986 257.854126,336.498749 
	C257.251465,333.849762 257.545441,331.824127 260.020782,329.998993 
	C269.564575,322.962189 279.838959,317.103699 289.934418,310.949432 
	C292.260895,309.531219 293.931732,310.463013 295.756714,311.918671 
	C302.267334,317.111664 308.926941,322.121033 315.355103,327.412567 
	C317.967957,329.563416 320.411560,330.169189 323.589722,328.907135 
	C329.478119,326.568787 335.597748,324.929352 341.804596,323.676849 
	C344.537445,323.125397 346.113251,321.778229 346.961304,319.011200 
	C349.350616,311.215363 352.129181,303.538513 354.500580,295.737640 
	C355.529205,292.353882 357.374695,290.807404 360.916107,290.745392 
	C372.223602,290.547455 383.510864,289.402649 394.846466,290.588715 
	C397.857483,290.903748 399.260437,292.229584 400.293030,294.766998 
	C403.311890,302.185486 405.559814,309.850708 407.633270,317.563568 
	C408.507690,320.816223 410.174591,322.577148 413.608917,323.270172 
	C420.453613,324.651306 427.323608,326.107849 433.802490,328.810242 
	C436.487061,329.930054 438.221313,328.829315 440.034302,327.173737 
	C445.693420,322.006042 451.447052,316.940125 457.036835,311.699127 
	C459.569519,309.324463 461.781189,308.888733 464.980652,310.761780 
	C474.176300,316.145172 483.519104,321.287109 492.925201,326.296509 
	C496.970947,328.451172 498.045990,331.135864 496.991211,335.636688 
	C495.134460,343.559357 493.940063,351.636444 492.432251,359.642090 
	C491.989716,361.991730 492.633820,363.733978 494.514801,365.344360 
	C504.306732,373.727570 512.513184,383.539581 520.388550,393.713104 
	C523.420898,397.630432 523.296814,399.999115 519.711182,403.252747 
	C499.975555,421.161133 480.388855,439.233643 460.500183,457.494629 
M357.001160,357.557190 
	C332.985199,365.075317 314.019440,379.863678 298.204041,398.941589 
	C281.004822,419.688782 267.089661,454.892517 269.657318,465.511841 
	C274.527161,452.542877 278.637024,439.984253 286.408508,429.158752 
	C281.186676,444.820374 275.744080,460.293640 273.780548,476.776215 
	C271.818756,493.244019 271.087219,509.597595 275.313812,525.835754 
	C275.125153,511.955231 276.379181,498.238770 278.639709,484.567871 
	C284.034210,451.943390 295.868683,422.117462 318.990601,398.049927 
	C345.294708,370.669983 377.674530,360.150482 415.062012,368.515228 
	C440.837097,374.281891 462.139587,388.341644 480.086029,407.503479 
	C483.345947,410.984161 485.944336,411.353790 488.985107,407.611053 
	C489.609375,406.842651 490.365265,406.136658 491.180054,405.575592 
	C494.163086,403.521393 493.765625,401.567017 491.521973,399.067993 
	C466.162048,370.821381 435.432770,352.162659 397.390320,347.130035 
	C353.094696,341.270172 315.092194,354.770569 283.704987,386.273590 
	C259.061371,411.008118 244.175720,441.220917 236.493469,475.089630 
	C235.643494,478.836914 234.264648,482.605164 234.727448,487.293030 
	C236.577286,484.964996 236.347656,482.679352 237.129608,480.774933 
	C237.863434,478.987793 236.954437,476.404663 240.237503,474.830414 
	C233.084686,540.797913 255.751892,592.233887 312.564850,627.538513 
	C297.016052,621.633728 283.578522,612.911682 270.922089,602.854919 
	C285.250824,634.608948 372.237244,660.072937 393.474152,639.374512 
	C392.106323,638.293457 390.626801,638.929382 389.165131,639.043274 
	C377.277496,639.969177 365.519623,639.148865 354.004089,635.985901 
	C322.976349,627.463379 298.193481,609.559937 278.549194,584.505676 
	C255.884613,555.599304 247.586029,522.384827 250.540054,486.066071 
	C253.041016,455.317444 262.610107,427.236572 281.455658,402.502441 
	C301.559265,376.117126 327.801910,359.949921 360.486267,354.261841 
	C361.664429,354.056793 363.104309,353.211792 363.874695,355.590393 
	C361.793701,356.191803 359.773041,356.775818 357.001160,357.557190 
M561.401611,432.926270 
	C566.726685,426.809631 573.029541,422.032684 580.423523,418.630066 
	C585.721191,416.192139 590.227600,412.636719 594.426819,407.945160 
	C591.341309,406.761719 589.533630,408.363037 587.707947,409.631226 
	C585.111511,411.434753 582.603943,413.365601 580.040771,415.217682 
	C576.864807,417.512543 573.361023,417.814331 570.233398,415.617371 
	C566.859497,413.247375 565.047791,414.531433 562.867371,417.251068 
	C553.186768,429.325806 546.498657,443.091583 540.021484,456.990692 
	C535.592041,466.495514 531.815308,476.438812 525.691040,484.953918 
	C512.147339,503.784851 494.644470,515.516235 470.233429,514.976257 
	C443.926819,514.394226 417.603424,514.546082 391.287048,514.446167 
	C384.996765,514.422302 383.447571,517.586243 386.853302,523.445312 
	C387.436951,523.289001 388.131775,523.243347 388.679352,522.935608 
	C401.993622,515.453247 413.599457,518.989990 424.436615,528.283264 
	C427.460754,530.876526 430.652740,533.350281 434.047058,535.420898 
	C442.831421,540.779663 451.942322,538.724731 461.120575,536.358765 
	C475.143646,532.744141 484.764984,539.086792 487.142090,553.280457 
	C489.545135,567.628906 487.021027,581.433350 482.333099,594.967041 
	C481.868713,596.307800 481.541962,597.910828 479.377380,598.520142 
	C479.943420,590.302307 481.421967,582.307251 479.943451,574.189514 
	C478.489624,566.207458 477.244141,558.301025 470.231781,552.331238 
	C482.942871,593.888977 466.637695,626.324036 439.072815,656.625000 
	C441.669830,655.633972 442.987061,655.339111 444.086609,654.680664 
	C460.845459,644.644409 474.483276,631.567017 483.863312,614.223267 
	C491.579712,599.955627 494.767609,584.242676 498.605194,568.762329 
	C501.502502,557.074768 506.220795,546.451477 513.926758,537.154663 
	C519.063782,530.957214 525.048950,525.656189 531.276001,520.650818 
	C544.757996,509.813904 553.011230,496.201202 557.107971,479.179565 
	C561.542847,460.753021 567.085571,442.343262 582.824097,429.510254 
	C583.272217,429.144836 583.543579,428.562744 584.058472,427.862579 
	C582.004578,427.593597 580.798279,428.621674 579.622253,429.375244 
	C567.937866,436.862518 559.833313,447.103485 556.415527,460.671478 
	C554.545288,468.095978 552.984314,475.608032 550.013550,482.687286 
	C548.197815,487.014191 546.786011,491.635254 542.641357,495.973358 
	C542.814148,493.820831 542.657715,492.634155 543.028564,491.645294 
	C546.040649,483.615082 547.089844,475.218719 548.058777,466.769684 
	C549.456604,454.580505 551.775635,442.677246 561.401611,432.926270 
M447.466827,630.960327 
	C455.696625,618.773621 460.884705,605.551697 461.505310,590.606934 
	C460.303864,590.813965 460.406464,591.597412 460.201843,592.179443 
	C453.873260,610.179871 443.945404,625.773743 428.783264,637.572937 
	C395.759064,663.272339 359.196320,668.111267 319.780457,655.578857 
	C310.270721,652.555237 301.555756,647.730469 291.782715,643.303467 
	C322.332581,675.341248 403.365173,691.790771 447.466827,630.960327 
M454.552704,414.903748 
	C459.067596,418.784637 463.582458,422.665558 468.240143,426.669220 
	C470.029022,425.116699 471.332031,423.852417 472.769867,422.766632 
	C475.502380,420.703247 475.649994,418.942810 473.046997,416.379059 
	C448.906494,392.602722 420.486298,380.004730 386.153168,383.314270 
	C367.367737,385.125122 351.370209,393.418884 337.441132,405.916901 
	C339.899597,405.076782 342.224915,403.936401 344.477356,402.666718 
	C357.304504,395.436005 371.066406,391.477692 385.765411,390.685577 
	C411.765503,389.284546 433.751373,399.371765 454.552704,414.903748 
M511.337067,572.879822 
	C517.256592,557.440063 526.051636,544.056213 540.174988,535.003784 
	C552.453491,527.133789 561.486145,516.468750 568.451965,503.969330 
	C578.818298,485.368164 587.219421,465.664581 599.763550,448.189209 
	C598.639526,448.776550 598.024048,449.786224 597.215698,450.605591 
	C586.404541,461.563904 579.457886,475.108521 572.493713,488.513397 
	C564.027649,504.808899 552.960327,518.530762 537.607361,528.787903 
	C532.794189,532.003479 528.109985,535.508789 524.309448,540.037781 
	C516.565491,549.266174 511.434296,559.792603 508.538452,571.418884 
	C507.673889,574.890137 505.639099,578.237244 506.783234,583.087830 
	C508.467529,579.308716 509.745972,576.440125 511.337067,572.879822 
M685.865601,380.657532 
	C682.848938,376.683472 678.851746,380.192535 675.506592,379.961761 
	C672.452759,379.751099 666.829102,378.290405 664.844727,383.811523 
	C667.814453,391.555908 662.900085,400.715454 668.595032,408.381714 
	C670.332275,406.738892 672.146545,406.393250 674.229553,407.033203 
	C679.063049,408.518127 683.932373,407.231750 688.723755,406.793304 
	C690.383362,406.641449 691.968262,405.020599 691.578857,401.977844 
	C690.915039,396.790558 691.114502,391.408722 691.644409,386.178802 
	C692.087219,381.807861 691.483643,380.719696 685.865601,380.657532 
M618.518005,382.032715 
	C623.783569,377.819244 628.315857,372.983429 631.502258,366.892090 
	C618.887512,371.145782 607.409485,377.346863 596.793335,385.099396 
	C589.288879,390.579590 581.700256,396.024292 576.014526,403.570679 
	C575.145325,404.724396 573.792542,405.927307 575.286682,407.464783 
	C576.639893,408.857269 578.230896,408.818970 579.803101,407.738159 
	C580.760254,407.080139 581.694092,406.388184 582.652283,405.731720 
	C588.775818,401.536224 594.357727,396.333344 602.251770,395.470947 
	C603.833252,395.298218 605.481506,394.077148 605.318542,392.630829 
	C604.728943,387.398926 608.472412,387.061890 611.925903,385.896790 
	C614.071899,385.172791 615.941589,383.629578 618.518005,382.032715 
M713.519287,360.809906 
	C714.941833,363.539062 714.374634,365.871460 711.507202,366.913208 
	C708.685913,367.938202 707.325989,365.888763 706.360657,363.523651 
	C705.717773,361.948303 705.696899,359.775574 702.999512,359.972015 
	C688.703003,361.013275 674.386536,360.139313 660.079712,360.308777 
	C657.327148,360.341400 655.394470,361.415771 653.549377,363.298035 
	C645.626953,371.380096 637.486206,379.252869 629.712769,387.474030 
	C626.349426,391.031067 622.708923,392.782227 617.837402,392.478271 
	C615.340454,392.322510 612.437866,391.786041 610.887512,394.848877 
	C617.280518,398.839630 624.122925,398.335968 628.998657,393.449463 
	C637.112183,385.317963 645.339478,377.288086 653.159790,368.881317 
	C656.779724,364.989868 660.682617,363.477661 665.904602,363.660828 
	C675.217896,363.987488 684.550537,363.884644 693.872925,363.776794 
	C698.328003,363.725250 702.243958,363.744629 704.852417,368.564117 
	C706.285217,371.211365 709.674072,372.121002 712.843262,370.720978 
	C716.180115,369.246857 718.053406,366.707825 717.822632,362.872070 
	C717.623596,359.563629 716.316833,357.247589 712.984924,356.573792 
	C711.305908,358.157990 712.233826,359.197083 713.519287,360.809906 
M642.056091,416.433228 
	C655.306763,411.267395 655.306763,411.267395 655.152649,408.146271 
	C649.052917,408.324066 643.922791,412.493805 637.409668,412.931610 
	C640.923889,402.198425 650.540894,395.968872 654.412781,386.137299 
	C650.766235,387.080597 648.179321,389.269745 646.312073,391.894165 
	C639.163940,401.941315 629.486023,408.643738 618.533569,413.795227 
	C618.082886,414.007233 617.646301,414.255463 617.223389,414.519287 
	C602.814819,423.508698 590.675720,434.782013 580.951111,450.501251 
	C614.368103,419.809082 627.346130,410.066986 634.243774,410.305084 
	C633.488953,418.449982 624.166870,419.685364 621.398743,426.434204 
	C628.537354,424.056580 634.351501,419.149109 642.056091,416.433228 
M704.398254,387.624207 
	C716.883911,387.650116 729.477417,388.718872 741.828308,387.441467 
	C757.735352,385.796173 769.517517,391.943298 779.702515,403.062775 
	C780.938538,404.412262 782.158081,405.803802 783.554504,406.973877 
	C786.495422,409.438019 788.269287,411.945923 787.535645,416.321014 
	C786.794067,420.742920 791.265747,424.708862 795.648132,424.554077 
	C799.578857,424.415222 802.858643,421.065033 802.935852,417.109894 
	C803.031006,412.235992 799.722595,408.374176 794.997803,408.902649 
	C791.574585,409.285522 789.728882,407.761719 787.734375,405.669861 
	C780.933472,398.536713 773.553223,392.109741 765.150635,386.876678 
	C762.073975,384.960571 758.954041,384.036407 755.286743,384.075195 
	C739.805054,384.239014 724.321106,384.184113 708.837952,384.220367 
	C707.341187,384.223877 705.798889,384.091370 704.358887,384.400299 
	C702.345337,384.832306 701.846741,385.949860 704.398254,387.624207 
M718.502136,399.034119 
	C733.555603,397.406006 746.744324,401.524048 758.020081,411.722992 
	C759.844666,413.373383 760.996582,414.818390 760.624695,417.643799 
	C759.929932,422.922302 763.389404,426.631622 768.604492,426.954224 
	C773.630981,427.265167 777.521301,423.839294 777.585022,419.045929 
	C777.644653,414.553009 773.804199,410.959869 768.522827,411.190216 
	C765.298462,411.330841 762.867920,410.410309 760.302368,408.541504 
	C756.010986,405.415527 751.487244,402.562866 746.851746,399.969574 
	C743.253357,397.956543 739.500854,396.133209 735.129822,396.143372 
	C725.978088,396.164673 716.825928,395.988434 707.673950,395.986633 
	C706.055603,395.986328 704.054932,395.593781 702.914429,398.182953 
	C707.980408,399.574158 712.792969,398.667847 718.502136,399.034119 
M517.694580,579.073364 
	C517.118530,580.811523 516.525085,582.544128 515.969055,584.288635 
	C509.657501,604.091980 504.470642,624.384460 491.206665,641.165283 
	C491.114410,641.281982 491.351654,641.659119 491.517548,642.167419 
	C502.623749,633.170288 509.471832,621.437927 513.648376,608.268799 
	C519.105652,591.061279 521.578918,572.970520 528.771484,556.206177 
	C524.396301,563.233276 520.313477,570.359680 517.694580,579.073364 
M745.745850,423.776184 
	C737.120605,417.767548 728.329895,412.100677 717.881287,409.423859 
	C716.977234,412.841156 719.061523,413.166290 720.704041,413.855560 
	C733.273376,419.130005 744.520813,426.378540 754.293457,435.943115 
	C756.945007,438.538177 758.592285,441.057556 758.243347,445.052734 
	C757.818481,449.918365 761.119995,453.353851 765.435364,453.446747 
	C769.260864,453.529144 773.105164,449.903229 773.443420,445.893585 
	C773.774414,441.971710 770.566467,437.420227 766.467468,437.614899 
	C761.739502,437.839508 759.218384,435.287750 756.291321,432.505280 
	C753.162598,429.531097 749.663147,426.946930 745.745850,423.776184 
M474.207123,638.701599 
	C455.516418,658.064270 433.090454,670.968323 406.860962,677.295593 
	C435.819550,677.781128 475.631561,650.950439 483.913452,627.848999 
	C480.644287,631.517334 477.671295,634.853333 474.207123,638.701599 
M453.663330,439.276947 
	C459.568054,436.377899 459.772400,435.001312 454.984344,431.153351 
	C446.091705,424.006683 436.264832,418.382568 425.919128,413.704712 
	C422.214050,412.029358 418.106995,411.243011 414.183380,410.050903 
	C420.971252,414.740326 428.123932,418.251892 434.624603,422.961090 
	C441.269623,427.774902 447.073303,433.501038 453.663330,439.276947 
M396.732452,532.056213 
	C394.643097,532.790588 392.624878,533.601318 391.741455,536.274353 
	C407.038330,534.309814 407.046631,534.297241 420.214386,542.978943 
	C422.554626,544.521912 425.031708,545.588989 427.833405,545.964294 
	C423.420471,541.918579 418.928314,538.072571 414.262543,534.450195 
	C409.202423,530.521790 403.587708,529.294922 396.732452,532.056213 
M748.258240,377.007263 
	C749.829590,377.454407 751.708435,378.353271 752.428589,376.089722 
	C753.002380,374.285919 751.200378,373.518097 749.939270,372.871307 
	C747.596008,371.669464 745.158936,370.641083 742.721313,369.636719 
	C741.567444,369.161285 740.375366,369.255951 739.739258,370.541901 
	C739.066711,371.901489 739.981018,372.822479 740.980530,373.394531 
	C743.120300,374.619202 745.361267,375.667175 748.258240,377.007263 
M603.408508,412.908447 
	C605.207947,411.247345 607.007324,409.586212 608.859314,407.876526 
	C604.183655,405.530060 599.642395,408.049255 596.933105,414.321747 
	C599.344299,416.693848 601.087341,414.792603 603.408508,412.908447 
M536.198425,566.709961 
	C536.094299,567.020630 535.931580,567.326111 535.903259,567.643555 
	C535.877686,567.931274 535.998596,568.232056 536.140808,568.977417 
	C538.534973,565.509705 540.784241,562.383545 540.473816,558.000183 
	C539.107422,560.713684 537.741089,563.427124 536.198425,566.709961 
z"/>
<path fill="#000000" opacity="1.000000" stroke="none" 
	d="
M555.148315,652.844177 
	C550.533447,647.995422 546.844788,642.824402 542.705261,638.058655 
	C538.935059,633.718140 538.844360,629.876160 541.480652,625.037109 
	C552.003906,605.721863 560.672852,585.491150 570.389893,565.774780 
	C575.173462,556.068604 579.582214,546.178284 584.248596,536.413330 
	C585.065247,534.704407 585.401917,532.512451 588.179626,531.584167 
	C590.160583,536.849548 589.341980,542.426025 590.174683,547.716125 
	C595.905457,584.119568 621.978455,614.162964 655.700500,622.722412 
	C691.904175,631.911865 729.588013,616.630676 749.551392,584.663574 
	C751.558716,581.449341 753.558899,578.230652 755.914490,574.448730 
	C763.892700,579.860657 771.595825,585.014771 779.224365,590.277039 
	C791.287537,598.598389 803.229675,607.097534 815.375366,615.295715 
	C819.394531,618.008667 820.342773,620.161743 817.508179,624.794434 
	C794.164551,662.945312 761.567749,689.297424 718.515015,701.685913 
	C674.308411,714.406372 632.522705,707.159180 593.219604,683.938843 
	C579.063782,675.575623 566.643188,665.045410 555.148315,652.844177 
M686.393921,646.556458 
	C685.651489,645.902527 684.685181,644.553345 684.203491,644.708557 
	C681.306580,645.641785 678.401367,644.579590 675.657349,644.440674 
	C672.009827,644.256104 667.746521,646.587952 664.621582,642.856384 
	C658.625732,650.121643 663.784363,658.868774 660.971008,666.561340 
	C662.772888,667.982971 663.752014,669.856506 667.095398,669.402100 
	C669.542480,669.069580 672.957153,668.023926 674.971375,669.257812 
	C678.516541,671.429321 681.136841,668.439087 684.242371,668.633118 
	C685.379944,668.704224 687.884827,667.222900 686.325134,664.257141 
	C685.118164,661.961975 685.854553,658.547119 686.316650,656.492493 
	C687.058472,653.194397 685.211304,649.992371 686.393921,646.556458 
M588.628235,646.940613 
	C578.751404,639.696777 569.794373,631.437988 561.739746,621.142883 
	C560.408325,625.451416 562.539795,627.394592 564.124451,629.363159 
	C572.362305,639.596802 582.563965,647.592407 593.633911,654.484253 
	C598.142273,657.291077 601.851013,660.445496 603.808411,665.613831 
	C606.140015,671.770508 610.373840,675.879761 616.804932,678.447205 
	C630.170959,683.783447 643.811951,687.791138 658.077332,689.600220 
	C660.241699,689.874634 661.665466,690.713928 663.030212,692.404236 
	C666.269531,696.416260 671.431580,697.083252 674.849976,694.206299 
	C677.912781,691.628784 678.351624,687.021545 675.832275,683.892822 
	C672.976379,680.346008 668.105835,680.184021 663.966553,683.857422 
	C661.883911,685.705688 659.830078,686.226257 657.149475,685.870850 
	C644.721252,684.223206 632.772461,680.893005 621.046875,676.481506 
	C614.255554,673.926331 609.158875,669.860901 606.482666,663.113586 
	C604.267944,657.529663 600.389404,653.747742 595.074890,651.146301 
	C593.000000,650.130676 591.164978,648.625061 588.628235,646.940613 
M633.662781,634.078491 
	C622.805359,628.510620 612.426147,622.224426 603.482300,613.813660 
	C600.778381,611.270874 598.622314,608.770996 599.491638,604.330078 
	C600.390686,599.736572 597.155212,595.564148 592.795837,595.531311 
	C588.860535,595.501526 587.139404,593.527527 585.649963,590.542114 
	C583.494934,586.222351 581.157593,581.995544 579.646912,577.374939 
	C579.157654,575.878662 578.935120,574.030762 576.734375,573.595154 
	C574.722290,574.753784 575.682495,576.297668 576.150818,577.857544 
	C577.886719,583.640381 580.695557,588.945374 583.449646,594.265381 
	C584.557068,596.404541 585.046814,598.334229 584.578918,600.870178 
	C583.588867,606.236572 586.906982,610.152710 592.543030,610.639465 
	C594.658020,610.822266 596.373840,611.299622 597.809204,612.942017 
	C606.863220,623.302063 618.566101,630.029175 630.433411,636.491516 
	C633.010681,637.894897 634.915771,639.296631 635.686523,642.533752 
	C636.802124,647.219116 641.251343,649.346924 645.276550,647.873169 
	C649.311768,646.395691 651.306763,642.529663 649.977356,638.763184 
	C648.382263,634.243713 644.278625,632.319092 639.535950,634.072205 
	C637.775879,634.722778 636.172913,635.580933 633.662781,634.078491 
M738.841125,672.631226 
	C740.927429,675.234680 743.065918,676.934937 746.198853,673.851196 
	C756.633667,663.580322 768.843506,655.273071 778.809204,644.485413 
	C781.770691,641.279663 784.506592,638.497742 789.610535,638.642883 
	C793.872375,638.764160 796.385803,634.522766 795.812439,630.075256 
	C795.321411,626.266418 791.452271,623.105225 787.720215,623.463745 
	C783.804871,623.839844 779.891541,627.924744 780.758484,631.745117 
	C781.670715,635.765198 779.754883,637.997131 777.372620,640.434387 
	C767.473267,650.562256 756.582703,659.596008 746.052185,669.029724 
	C743.564453,671.258423 741.949463,670.827148 739.782410,668.718811 
	C737.487732,666.486389 735.858459,663.235962 731.859009,663.271057 
	C721.710205,663.360107 711.560120,663.290283 701.410828,663.348145 
	C699.870117,663.356934 697.880188,663.014465 697.849548,665.648621 
	C699.259705,667.391907 701.228394,666.729492 702.947754,666.740784 
	C710.600708,666.791077 718.270569,667.014404 725.902588,666.596497 
	C731.218018,666.305603 735.355896,667.662659 738.841125,672.631226 
M755.033203,626.904236 
	C756.177673,636.293396 749.118347,640.505615 743.295898,645.495667 
	C742.536987,646.146179 741.691101,646.705750 740.989807,647.411133 
	C737.344727,651.077637 732.948608,652.352356 727.825073,652.236145 
	C719.331299,652.043518 710.828735,652.157959 702.331482,652.267151 
	C700.713074,652.287903 698.558289,651.420410 697.688965,653.864624 
	C698.434326,656.159241 700.345154,655.600952 701.889648,655.641968 
	C705.386780,655.734863 708.950867,655.258972 712.376343,655.766602 
	C729.265625,658.269470 743.474487,653.669250 754.677429,640.523071 
	C756.051392,638.910706 757.765259,638.366272 760.004639,638.511902 
	C764.683777,638.816223 768.204224,636.677429 769.480774,632.089661 
	C770.456482,628.583313 769.246948,625.499207 765.898743,623.561462 
	C761.536011,621.036499 758.286926,622.830811 755.033203,626.904236 
M723.262634,632.913879 
	C717.579224,635.790649 711.418030,637.525574 704.219177,640.115662 
	C708.937744,641.530579 712.148865,640.973206 715.289734,639.890869 
	C728.785217,635.240356 740.153381,627.325378 750.113403,617.214111 
	C752.734253,614.553467 755.000549,611.576721 759.612610,611.649780 
	C763.866089,611.717163 767.011108,607.296814 766.387939,603.420898 
	C765.770264,599.578857 762.380859,596.842468 758.642029,597.167419 
	C754.182251,597.555054 750.599854,601.415222 751.669128,605.728760 
	C752.514221,609.138550 751.214233,611.096924 749.202576,613.205505 
	C741.786011,620.979004 733.332703,627.393066 723.262634,632.913879 
M599.994812,628.648621 
	C594.756592,630.972290 593.137207,633.759094 594.445801,638.197693 
	C595.645691,642.267334 599.473328,644.244629 604.445984,642.983215 
	C606.648071,642.424683 608.247009,642.962341 610.026367,644.108276 
	C617.585571,648.976746 625.663086,652.956360 633.284058,657.760132 
	C638.225830,660.875122 644.149353,661.318787 650.620422,660.227661 
	C648.861938,657.365234 646.908569,657.637756 645.174072,657.303955 
	C642.084656,656.709290 638.808167,656.668457 636.015686,655.076782 
	C627.918396,650.461548 619.891479,645.722595 611.848816,641.011780 
	C610.069641,639.969666 608.803101,638.712280 608.679443,636.333496 
	C608.424866,631.433594 605.594116,628.846252 599.994812,628.648621 
M706.035461,686.348083 
	C709.476257,690.572449 714.585205,691.223938 717.956726,687.868225 
	C721.110779,684.729187 720.962891,679.624512 717.638306,676.870789 
	C714.436218,674.218567 709.220642,675.024597 706.601257,678.530701 
	C704.939575,680.755005 705.090942,683.162720 706.035461,686.348083 
M577.294434,616.162598 
	C573.883728,611.428589 570.473022,606.694580 566.716797,601.480896 
	C565.062927,608.030273 579.853210,627.552124 587.848816,629.355530 
	C585.272644,623.842041 580.720093,620.847900 577.294434,616.162598 
M640.196594,670.363770 
	C638.701233,670.526489 637.057251,671.436707 638.923645,672.546265 
	C642.320251,674.565491 646.209778,675.672241 651.231689,673.868225 
	C647.666077,670.896179 644.009094,671.433044 640.196594,670.363770 
M615.694763,663.783813 
	C616.685486,665.054382 617.539429,666.763306 619.533508,666.116760 
	C620.837524,665.693909 621.017700,664.285461 620.561035,663.196167 
	C619.533203,660.744629 617.592041,659.617981 615.076965,659.657715 
	C614.145142,661.191040 615.017456,662.154236 615.694763,663.783813 
z"/>
<path fill="#000000" opacity="1.000000" stroke="none" 
	d="
M492.468658,521.080811 
	C509.485046,518.062683 521.075745,507.914337 530.435486,494.063629 
	C531.425415,502.377960 524.428101,513.542603 514.197449,520.703491 
	C507.462311,525.417664 494.754181,526.623291 487.928436,523.084595 
	C488.697083,521.047241 490.824188,521.963623 492.468658,521.080811 
z"/>
<path fill="#000000" opacity="1.000000" stroke="none" 
	d="
M447.854065,528.324219 
	C441.783386,528.094482 436.760895,526.665100 433.705078,520.862305 
	C442.340271,523.656677 451.104736,522.648376 459.993347,522.589478 
	C456.610352,525.933411 452.762390,527.770569 447.854065,528.324219 
z"/>
<path fill="#000000" opacity="1.000000" stroke="none" 
	d="
M794.987427,412.601868 
	C795.966309,412.812073 796.696655,412.887695 797.172485,413.275604 
	C799.497070,415.170868 799.910217,417.468445 797.798401,419.678955 
	C796.285828,421.262177 794.191162,420.973450 793.013733,419.338409 
	C791.131165,416.723907 790.936646,414.096802 794.987427,412.601868 
z"/>
<path fill="#000000" opacity="1.000000" stroke="none" 
	d="
M765.097107,449.650635 
	C762.144104,448.260620 761.023987,446.250153 762.244446,443.496552 
	C762.949158,441.906525 764.382568,440.876251 766.250244,441.329651 
	C768.177856,441.797607 769.472351,443.146973 769.577759,445.162598 
	C769.722900,447.940704 768.112610,449.370148 765.097107,449.650635 
z"/>
<path fill="#000000" opacity="1.000000" stroke="none" 
	d="
M674.082397,688.908875 
	C673.162354,692.331787 671.349121,693.979309 668.194458,692.472168 
	C666.008301,691.427673 665.178711,689.340637 666.145386,687.036072 
	C667.047302,684.885681 669.018188,684.363586 671.129333,684.915222 
	C672.867310,685.369446 673.834534,686.703552 674.082397,688.908875 
z"/>
<path fill="#000000" opacity="1.000000" stroke="none" 
	d="
M591.303711,607.005493 
	C588.824097,605.792419 587.449402,604.183411 587.960449,601.702942 
	C588.281128,600.146301 589.432129,599.087646 591.074280,598.848511 
	C593.585754,598.482788 595.524597,599.611938 596.004700,601.984497 
	C596.644348,605.145508 595.170837,607.114319 591.303711,607.005493 
z"/>
<path fill="#000000" opacity="1.000000" stroke="none" 
	d="
M639.761902,638.587036 
	C641.911377,636.025330 643.957947,636.320435 645.904358,638.198242 
	C647.217224,639.464783 647.542175,641.058411 646.578735,642.694458 
	C645.694092,644.196655 644.380493,645.459229 642.566223,644.785583 
	C639.951843,643.814758 638.660156,641.862671 639.761902,638.587036 
z"/>
<path fill="#000000" opacity="1.000000" stroke="none" 
	d="
M786.112549,635.001343 
	C783.950867,632.839172 783.449280,630.828613 785.509705,628.720886 
	C787.002686,627.193542 788.747253,627.149353 790.448669,628.244507 
	C792.202209,629.373291 792.767334,631.209717 791.913147,632.999817 
	C790.852478,635.222534 789.178528,636.817749 786.112549,635.001343 
z"/>
<path fill="#000000" opacity="1.000000" stroke="none" 
	d="
M762.119751,634.345886 
	C760.966125,633.758301 760.016724,633.331177 759.393250,632.618835 
	C757.740540,630.730469 757.558594,628.783569 759.633972,626.993347 
	C761.317871,625.540833 763.011108,625.754578 764.535889,627.151917 
	C766.416809,628.875671 766.630188,630.893616 764.910400,632.838684 
	C764.299500,633.529602 763.296509,633.873779 762.119751,634.345886 
z"/>
<path fill="#000000" opacity="1.000000" stroke="none" 
	d="
M757.511597,607.834717 
	C752.882446,603.699341 756.251221,601.048096 758.794373,597.852905 
	C760.917542,599.650269 764.498413,599.905518 763.490417,603.877686 
	C762.765808,606.732971 761.262878,608.723267 757.511597,607.834717 
z"/>
<path fill="#000000" opacity="1.000000" stroke="none" 
	d="
M599.574707,632.704224 
	C603.053528,631.623352 605.304504,632.442261 605.636902,635.937134 
	C605.798218,637.633484 604.936340,639.231140 603.184570,639.937134 
	C601.674927,640.545471 600.172363,640.374939 599.117798,639.017883 
	C597.538635,636.985718 596.904480,634.883789 599.574707,632.704224 
z"/>
<path fill="#000000" opacity="1.000000" stroke="none" 
	d="
M716.594971,681.400024 
	C716.942627,684.844666 715.518799,686.527222 712.422729,686.203979 
	C709.960449,685.946838 708.503235,684.330627 709.000183,681.787292 
	C709.433105,679.571716 711.099731,678.576782 713.392090,678.820923 
	C714.824829,678.973450 715.738770,679.865784 716.594971,681.400024 
z"/>
</svg>